<?xml version="1.0" encoding="UTF-8" standalone="no"?>
<!DOCTYPE svg PUBLIC "-//W3C//DTD SVG 1.1//EN"
 "http://www.w3.org/Graphics/SVG/1.1/DTD/svg11.dtd">
<!-- Generated by graphviz version 2.40.1 (20161225.0304)
 -->
<!-- Title: d Pages: 1 -->
<svg width="373pt" height="307pt"
 viewBox="0.00 0.00 373.22 307.00" xmlns="http://www.w3.org/2000/svg" xmlns:xlink="http://www.w3.org/1999/xlink">
<g id="graph0" class="graph" transform="scale(1 1) rotate(0) translate(4 303)">
<title>d</title>
<polygon fill="#ffffff" stroke="transparent" points="-4,4 -4,-303 369.2158,-303 369.2158,4 -4,4"/>
<!-- index -->
<g id="node1" class="node">
<title>index</title>
<polygon fill="none" stroke="#000000" points="58.6006,-258.5 58.6006,-298.5 146.6123,-298.5 146.6123,-258.5 58.6006,-258.5"/>
<text text-anchor="middle" x="102.6064" y="-284.9" font-family="Courier,monospace" font-size="12.00" fill="#000000">index.html</text>
<polyline fill="none" stroke="#000000" points="58.6006,-278.5 146.6123,-278.5 "/>
<text text-anchor="middle" x="102.6064" y="-264.9" font-family="Courier,monospace" font-size="12.00" fill="#000000"> </text>
</g>
<!-- require -->
<g id="node2" class="node">
<title>require</title>
<polygon fill="none" stroke="#000000" points="28.6006,-172.5 28.6006,-212.5 116.6123,-212.5 116.6123,-172.5 28.6006,-172.5"/>
<text text-anchor="middle" x="72.6064" y="-198.9" font-family="Courier,monospace" font-size="12.00" fill="#000000">require.js</text>
<polyline fill="none" stroke="#000000" points="28.6006,-192.5 116.6123,-192.5 "/>
<text text-anchor="middle" x="72.6064" y="-178.9" font-family="Courier,monospace" font-size="12.00" fill="#000000"> </text>
</g>
<!-- index&#45;&gt;require -->
<g id="edge1" class="edge">
<title>index&#45;&gt;require</title>
<path fill="none" stroke="#000000" d="M95.2381,-258.1409C93.1392,-252.2909 90.8632,-245.8984 88.8003,-240 86.8103,-234.3099 84.7131,-228.226 82.712,-222.3767"/>
<polygon fill="#000000" stroke="#000000" points="86.0093,-221.2018 79.4709,-212.8652 79.3834,-223.4597 86.0093,-221.2018"/>
<text text-anchor="middle" x="108.5095" y="-232.8" font-family="Courier,monospace" font-size="9.00" fill="#000000"> &#160;loads</text>
</g>
<!-- app -->
<g id="node3" class="node">
<title>app</title>
<polygon fill="none" stroke="#000000" points="135.0029,-172.5 135.0029,-212.5 194.21,-212.5 194.21,-172.5 135.0029,-172.5"/>
<text text-anchor="middle" x="164.6064" y="-198.9" font-family="Courier,monospace" font-size="12.00" fill="#000000">app.js</text>
<polyline fill="none" stroke="#000000" points="135.0029,-192.5 194.21,-192.5 "/>
<text text-anchor="middle" x="164.6064" y="-178.9" font-family="Courier,monospace" font-size="12.00" fill="#000000"> </text>
</g>
<!-- index&#45;&gt;app -->
<g id="edge2" class="edge">
<title>index&#45;&gt;app</title>
<path fill="none" stroke="#000000" d="M117.2996,-258.1192C125.2525,-247.0877 135.2073,-233.2795 143.9306,-221.1793"/>
<polygon fill="#000000" stroke="#000000" points="147.0098,-222.8931 150.0188,-212.7345 141.3316,-218.7995 147.0098,-222.8931"/>
<text text-anchor="middle" x="162.6108" y="-232.8" font-family="Courier,monospace" font-size="9.00" fill="#000000"> &#160;requires</text>
</g>
<!-- main -->
<g id="node4" class="node">
<title>main</title>
<polygon fill="none" stroke="#000000" points="117,-86.5 117,-126.5 212.2129,-126.5 212.2129,-86.5 117,-86.5"/>
<text text-anchor="middle" x="164.6064" y="-112.9" font-family="Courier,monospace" font-size="12.00" fill="#000000">app/main.js</text>
<polyline fill="none" stroke="#000000" points="117,-106.5 212.2129,-106.5 "/>
<text text-anchor="middle" x="164.6064" y="-92.9" font-family="Courier,monospace" font-size="12.00" fill="#000000"> </text>
</g>
<!-- app&#45;&gt;main -->
<g id="edge3" class="edge">
<title>app&#45;&gt;main</title>
<path fill="none" stroke="#000000" d="M164.6064,-172.1192C164.6064,-161.6232 164.6064,-148.6136 164.6064,-136.9531"/>
<polygon fill="#000000" stroke="#000000" points="168.1065,-136.7345 164.6064,-126.7345 161.1065,-136.7345 168.1065,-136.7345"/>
<text text-anchor="middle" x="191.6108" y="-146.8" font-family="Courier,monospace" font-size="9.00" fill="#000000"> &#160;requires</text>
</g>
<!-- messages -->
<g id="node5" class="node">
<title>messages</title>
<polygon fill="none" stroke="#000000" points="0,-.5 0,-40.5 95.2129,-40.5 95.2129,-.5 0,-.5"/>
<text text-anchor="middle" x="47.6064" y="-26.9" font-family="Courier,monospace" font-size="12.00" fill="#000000">messages.js</text>
<polyline fill="none" stroke="#000000" points="0,-20.5 95.2129,-20.5 "/>
<text text-anchor="middle" x="47.6064" y="-6.9" font-family="Courier,monospace" font-size="12.00" fill="#000000"> </text>
</g>
<!-- main&#45;&gt;messages -->
<g id="edge4" class="edge">
<title>main&#45;&gt;messages</title>
<path fill="none" stroke="#000000" d="M133.2366,-86.4386C124.5004,-80.6479 115.0828,-74.2117 106.5977,-68 97.673,-61.4666 88.2443,-54.0983 79.6062,-47.1492"/>
<polygon fill="#000000" stroke="#000000" points="81.5785,-44.2421 71.609,-40.656 77.1662,-49.6764 81.5785,-44.2421"/>
<text text-anchor="middle" x="133.6108" y="-60.8" font-family="Courier,monospace" font-size="9.00" fill="#000000"> &#160;requires</text>
</g>
<!-- print -->
<g id="node6" class="node">
<title>print</title>
<polygon fill="none" stroke="#000000" points="113.3994,-.5 113.3994,-40.5 215.8135,-40.5 215.8135,-.5 113.3994,-.5"/>
<text text-anchor="middle" x="164.6064" y="-26.9" font-family="Courier,monospace" font-size="12.00" fill="#000000">lib/print.js</text>
<polyline fill="none" stroke="#000000" points="113.3994,-20.5 215.8135,-20.5 "/>
<text text-anchor="middle" x="164.6064" y="-6.9" font-family="Courier,monospace" font-size="12.00" fill="#000000"> </text>
</g>
<!-- main&#45;&gt;print -->
<g id="edge5" class="edge">
<title>main&#45;&gt;print</title>
<path fill="none" stroke="#000000" d="M164.6064,-86.1192C164.6064,-75.6232 164.6064,-62.6136 164.6064,-50.9531"/>
<polygon fill="#000000" stroke="#000000" points="168.1065,-50.7345 164.6064,-40.7345 161.1065,-50.7345 168.1065,-50.7345"/>
<text text-anchor="middle" x="191.6108" y="-60.8" font-family="Courier,monospace" font-size="9.00" fill="#000000"> &#160;requires</text>
</g>
<!-- whatever_else -->
<g id="node7" class="node">
<title>whatever_else</title>
<polygon fill="none" stroke="#000000" points="233.9971,-.5 233.9971,-40.5 365.2158,-40.5 365.2158,-.5 233.9971,-.5"/>
<text text-anchor="middle" x="299.6064" y="-26.9" font-family="Courier,monospace" font-size="12.00" fill="#000000">whatever_else.js</text>
<polyline fill="none" stroke="#000000" points="233.9971,-20.5 365.2158,-20.5 "/>
<text text-anchor="middle" x="299.6064" y="-6.9" font-family="Courier,monospace" font-size="12.00" fill="#000000"> </text>
</g>
<!-- main&#45;&gt;whatever_else -->
<g id="edge6" class="edge">
<title>main&#45;&gt;whatever_else</title>
<path fill="none" stroke="#000000" d="M196.2579,-86.3368C215.1306,-74.3142 239.2704,-58.9363 259.4729,-46.0665"/>
<polygon fill="#000000" stroke="#000000" points="261.5997,-48.8616 268.1532,-40.5369 257.8387,-42.9578 261.5997,-48.8616"/>
<text text-anchor="middle" x="262.6108" y="-60.8" font-family="Courier,monospace" font-size="9.00" fill="#000000"> &#160;requires</text>
</g>
</g>
</svg>
